<mxfile host="app.diagrams.net" agent="Mozilla/5.0 (Windows NT 10.0; Win64; x64) AppleWebKit/537.36 (KHTML, like Gecko) Chrome/133.0.0.0 Safari/537.36" version="26.0.15">
  <diagram name="Page-1" id="2YBvvXClWsGukQMizWep">
    <mxGraphModel dx="2269" dy="1454" grid="1" gridSize="10" guides="1" tooltips="1" connect="1" arrows="1" fold="1" page="1" pageScale="1" pageWidth="827" pageHeight="1169" math="0" shadow="0">
      <root>
        <mxCell id="0" />
        <mxCell id="1" parent="0" />
        <mxCell id="aM9ryv3xv72pqoxQDRHE-1" value=":Platform" style="shape=umlLifeline;perimeter=lifelinePerimeter;whiteSpace=wrap;html=1;container=0;dropTarget=0;collapsible=0;recursiveResize=0;outlineConnect=0;portConstraint=eastwest;newEdgeStyle={&quot;edgeStyle&quot;:&quot;elbowEdgeStyle&quot;,&quot;elbow&quot;:&quot;vertical&quot;,&quot;curved&quot;:0,&quot;rounded&quot;:0};" parent="1" vertex="1">
          <mxGeometry x="271" y="105" width="100" height="895" as="geometry" />
        </mxCell>
        <mxCell id="l4Q2vnecsxd_npJiP5hj-20" value="" style="html=1;points=[];perimeter=orthogonalPerimeter;outlineConnect=0;targetShapes=umlLifeline;portConstraint=eastwest;newEdgeStyle={&quot;edgeStyle&quot;:&quot;elbowEdgeStyle&quot;,&quot;elbow&quot;:&quot;vertical&quot;,&quot;curved&quot;:0,&quot;rounded&quot;:0};" vertex="1" parent="aM9ryv3xv72pqoxQDRHE-1">
          <mxGeometry x="45" y="66" width="10" height="74" as="geometry" />
        </mxCell>
        <mxCell id="aM9ryv3xv72pqoxQDRHE-5" value=":PaymentGateway" style="shape=umlLifeline;perimeter=lifelinePerimeter;whiteSpace=wrap;html=1;container=0;dropTarget=0;collapsible=0;recursiveResize=0;outlineConnect=0;portConstraint=eastwest;newEdgeStyle={&quot;edgeStyle&quot;:&quot;elbowEdgeStyle&quot;,&quot;elbow&quot;:&quot;vertical&quot;,&quot;curved&quot;:0,&quot;rounded&quot;:0};" parent="1" vertex="1">
          <mxGeometry x="427" y="105" width="110" height="895" as="geometry" />
        </mxCell>
        <mxCell id="l4Q2vnecsxd_npJiP5hj-24" value="" style="html=1;points=[];perimeter=orthogonalPerimeter;outlineConnect=0;targetShapes=umlLifeline;portConstraint=eastwest;newEdgeStyle={&quot;edgeStyle&quot;:&quot;elbowEdgeStyle&quot;,&quot;elbow&quot;:&quot;vertical&quot;,&quot;curved&quot;:0,&quot;rounded&quot;:0};" vertex="1" parent="aM9ryv3xv72pqoxQDRHE-5">
          <mxGeometry x="50" y="145" width="10" height="185" as="geometry" />
        </mxCell>
        <mxCell id="l4Q2vnecsxd_npJiP5hj-1" value="sd CreditCardPayment" style="shape=umlFrame;whiteSpace=wrap;html=1;pointerEvents=0;width=150;height=30;" vertex="1" parent="1">
          <mxGeometry x="10" y="20" width="1150" height="1030" as="geometry" />
        </mxCell>
        <mxCell id="l4Q2vnecsxd_npJiP5hj-11" value="" style="shape=umlLifeline;perimeter=lifelinePerimeter;whiteSpace=wrap;html=1;container=1;dropTarget=0;collapsible=0;recursiveResize=0;outlineConnect=0;portConstraint=eastwest;newEdgeStyle={&quot;curved&quot;:0,&quot;rounded&quot;:0};participant=umlActor;size=60;" vertex="1" parent="1">
          <mxGeometry x="101" y="80" width="30" height="920" as="geometry" />
        </mxCell>
        <mxCell id="l4Q2vnecsxd_npJiP5hj-15" value="" style="html=1;points=[];perimeter=orthogonalPerimeter;outlineConnect=0;targetShapes=umlLifeline;portConstraint=eastwest;newEdgeStyle={&quot;edgeStyle&quot;:&quot;elbowEdgeStyle&quot;,&quot;elbow&quot;:&quot;vertical&quot;,&quot;curved&quot;:0,&quot;rounded&quot;:0};" vertex="1" parent="l4Q2vnecsxd_npJiP5hj-11">
          <mxGeometry x="10" y="91" width="10" height="779" as="geometry" />
        </mxCell>
        <mxCell id="l4Q2vnecsxd_npJiP5hj-17" value="" style="rounded=0;whiteSpace=wrap;html=1;fillColor=default;strokeColor=none;" vertex="1" parent="1">
          <mxGeometry x="101" y="145" width="30" height="20" as="geometry" />
        </mxCell>
        <mxCell id="l4Q2vnecsxd_npJiP5hj-16" value="&lt;font style=&quot;font-size: 11px;&quot;&gt;Buyer&lt;/font&gt;" style="text;html=1;align=center;verticalAlign=middle;resizable=0;points=[];autosize=1;strokeColor=none;fillColor=none;fontSize=16;" vertex="1" parent="1">
          <mxGeometry x="91" y="137" width="50" height="30" as="geometry" />
        </mxCell>
        <mxCell id="l4Q2vnecsxd_npJiP5hj-18" value=":Bank" style="shape=umlLifeline;perimeter=lifelinePerimeter;whiteSpace=wrap;html=1;container=0;dropTarget=0;collapsible=0;recursiveResize=0;outlineConnect=0;portConstraint=eastwest;newEdgeStyle={&quot;edgeStyle&quot;:&quot;elbowEdgeStyle&quot;,&quot;elbow&quot;:&quot;vertical&quot;,&quot;curved&quot;:0,&quot;rounded&quot;:0};" vertex="1" parent="1">
          <mxGeometry x="650" y="105" width="80" height="895" as="geometry" />
        </mxCell>
        <mxCell id="l4Q2vnecsxd_npJiP5hj-40" value="" style="html=1;points=[];perimeter=orthogonalPerimeter;outlineConnect=0;targetShapes=umlLifeline;portConstraint=eastwest;newEdgeStyle={&quot;edgeStyle&quot;:&quot;elbowEdgeStyle&quot;,&quot;elbow&quot;:&quot;vertical&quot;,&quot;curved&quot;:0,&quot;rounded&quot;:0};" vertex="1" parent="l4Q2vnecsxd_npJiP5hj-18">
          <mxGeometry x="35" y="285" width="10" height="245" as="geometry" />
        </mxCell>
        <mxCell id="l4Q2vnecsxd_npJiP5hj-44" value="" style="html=1;points=[[0,0,0,0,5],[0,1,0,0,-5],[1,0,0,0,5],[1,1,0,0,-5]];perimeter=orthogonalPerimeter;outlineConnect=0;targetShapes=umlLifeline;portConstraint=eastwest;newEdgeStyle={&quot;curved&quot;:0,&quot;rounded&quot;:0};" vertex="1" parent="l4Q2vnecsxd_npJiP5hj-18">
          <mxGeometry x="41" y="328" width="10" height="40" as="geometry" />
        </mxCell>
        <mxCell id="l4Q2vnecsxd_npJiP5hj-45" value="Detokenize user data" style="html=1;align=left;spacingLeft=2;endArrow=block;rounded=0;edgeStyle=orthogonalEdgeStyle;curved=0;rounded=0;fontSize=12;startSize=8;endSize=8;" edge="1" parent="l4Q2vnecsxd_npJiP5hj-18" target="l4Q2vnecsxd_npJiP5hj-44">
          <mxGeometry x="0.0079" relative="1" as="geometry">
            <mxPoint x="45" y="308" as="sourcePoint" />
            <Array as="points">
              <mxPoint x="69" y="308" />
              <mxPoint x="69" y="343" />
            </Array>
            <mxPoint as="offset" />
          </mxGeometry>
        </mxCell>
        <mxCell id="l4Q2vnecsxd_npJiP5hj-46" value="" style="html=1;align=left;spacingLeft=2;endArrow=openThin;rounded=0;edgeStyle=orthogonalEdgeStyle;curved=0;rounded=0;fontSize=12;startSize=8;endSize=8;dashed=1;endFill=0;" edge="1" parent="l4Q2vnecsxd_npJiP5hj-18">
          <mxGeometry x="-0.0115" y="54" relative="1" as="geometry">
            <mxPoint x="51" y="358" as="sourcePoint" />
            <Array as="points">
              <mxPoint x="69" y="358" />
              <mxPoint x="69" y="393" />
            </Array>
            <mxPoint x="45" y="393" as="targetPoint" />
            <mxPoint as="offset" />
          </mxGeometry>
        </mxCell>
        <mxCell id="l4Q2vnecsxd_npJiP5hj-104" value="" style="html=1;points=[];perimeter=orthogonalPerimeter;outlineConnect=0;targetShapes=umlLifeline;portConstraint=eastwest;newEdgeStyle={&quot;edgeStyle&quot;:&quot;elbowEdgeStyle&quot;,&quot;elbow&quot;:&quot;vertical&quot;,&quot;curved&quot;:0,&quot;rounded&quot;:0};" vertex="1" parent="l4Q2vnecsxd_npJiP5hj-18">
          <mxGeometry x="35" y="635" width="10" height="215" as="geometry" />
        </mxCell>
        <mxCell id="l4Q2vnecsxd_npJiP5hj-19" value=":3DSecureService" style="shape=umlLifeline;perimeter=lifelinePerimeter;whiteSpace=wrap;html=1;container=0;dropTarget=0;collapsible=0;recursiveResize=0;outlineConnect=0;portConstraint=eastwest;newEdgeStyle={&quot;edgeStyle&quot;:&quot;elbowEdgeStyle&quot;,&quot;elbow&quot;:&quot;vertical&quot;,&quot;curved&quot;:0,&quot;rounded&quot;:0};" vertex="1" parent="1">
          <mxGeometry x="975" y="109.5" width="110" height="890.5" as="geometry" />
        </mxCell>
        <mxCell id="l4Q2vnecsxd_npJiP5hj-57" value="" style="html=1;points=[];perimeter=orthogonalPerimeter;outlineConnect=0;targetShapes=umlLifeline;portConstraint=eastwest;newEdgeStyle={&quot;edgeStyle&quot;:&quot;elbowEdgeStyle&quot;,&quot;elbow&quot;:&quot;vertical&quot;,&quot;curved&quot;:0,&quot;rounded&quot;:0};" vertex="1" parent="l4Q2vnecsxd_npJiP5hj-19">
          <mxGeometry x="50" y="475.5" width="10" height="264.5" as="geometry" />
        </mxCell>
        <mxCell id="l4Q2vnecsxd_npJiP5hj-91" value="" style="html=1;points=[[0,0,0,0,5],[0,1,0,0,-5],[1,0,0,0,5],[1,1,0,0,-5]];perimeter=orthogonalPerimeter;outlineConnect=0;targetShapes=umlLifeline;portConstraint=eastwest;newEdgeStyle={&quot;curved&quot;:0,&quot;rounded&quot;:0};" vertex="1" parent="l4Q2vnecsxd_npJiP5hj-19">
          <mxGeometry x="55" y="515.5" width="10" height="40" as="geometry" />
        </mxCell>
        <mxCell id="l4Q2vnecsxd_npJiP5hj-92" value="Generate OTP" style="html=1;align=left;spacingLeft=2;endArrow=block;rounded=0;edgeStyle=orthogonalEdgeStyle;curved=0;rounded=0;fontSize=12;startSize=8;endSize=8;" edge="1" target="l4Q2vnecsxd_npJiP5hj-91" parent="l4Q2vnecsxd_npJiP5hj-19">
          <mxGeometry relative="1" as="geometry">
            <mxPoint x="60" y="495.5" as="sourcePoint" />
            <Array as="points">
              <mxPoint x="85" y="495" />
              <mxPoint x="85" y="526" />
            </Array>
          </mxGeometry>
        </mxCell>
        <mxCell id="l4Q2vnecsxd_npJiP5hj-93" value="" style="html=1;align=left;spacingLeft=2;endArrow=openThin;rounded=0;edgeStyle=orthogonalEdgeStyle;curved=0;rounded=0;fontSize=12;startSize=8;endSize=8;dashed=1;endFill=0;" edge="1" parent="l4Q2vnecsxd_npJiP5hj-19" source="l4Q2vnecsxd_npJiP5hj-91" target="l4Q2vnecsxd_npJiP5hj-57">
          <mxGeometry x="-0.0115" y="54" relative="1" as="geometry">
            <mxPoint x="71" y="550.5" as="sourcePoint" />
            <Array as="points">
              <mxPoint x="85" y="551" />
              <mxPoint x="85" y="585" />
            </Array>
            <mxPoint x="65" y="585.5" as="targetPoint" />
            <mxPoint as="offset" />
          </mxGeometry>
        </mxCell>
        <mxCell id="l4Q2vnecsxd_npJiP5hj-21" value="" style="endArrow=classic;html=1;rounded=0;fontSize=12;startSize=8;endSize=8;curved=1;" edge="1" parent="1" target="l4Q2vnecsxd_npJiP5hj-20">
          <mxGeometry width="50" height="50" relative="1" as="geometry">
            <mxPoint x="122.00000000000011" y="183" as="sourcePoint" />
            <mxPoint x="281" y="183" as="targetPoint" />
          </mxGeometry>
        </mxCell>
        <mxCell id="l4Q2vnecsxd_npJiP5hj-23" value="&lt;span style=&quot;font-size: 11px;&quot;&gt;Select credit card payment&lt;/span&gt;" style="text;html=1;align=center;verticalAlign=middle;resizable=0;points=[];autosize=1;strokeColor=none;fillColor=none;fontSize=16;" vertex="1" parent="1">
          <mxGeometry x="121" y="156" width="150" height="30" as="geometry" />
        </mxCell>
        <mxCell id="l4Q2vnecsxd_npJiP5hj-26" value="&lt;span style=&quot;font-size: 11px;&quot;&gt;Redirect user to payment gateway&lt;/span&gt;" style="text;html=1;align=center;verticalAlign=middle;resizable=0;points=[];autosize=1;strokeColor=none;fillColor=none;fontSize=16;" vertex="1" parent="1">
          <mxGeometry x="129" y="210" width="190" height="30" as="geometry" />
        </mxCell>
        <mxCell id="l4Q2vnecsxd_npJiP5hj-27" value="" style="endArrow=openThin;html=1;rounded=0;fontSize=12;startSize=8;endSize=8;curved=1;dashed=1;endFill=0;" edge="1" parent="1">
          <mxGeometry width="50" height="50" relative="1" as="geometry">
            <mxPoint x="316" y="237" as="sourcePoint" />
            <mxPoint x="121" y="237" as="targetPoint" />
          </mxGeometry>
        </mxCell>
        <mxCell id="l4Q2vnecsxd_npJiP5hj-28" value="" style="endArrow=classic;html=1;rounded=0;fontSize=12;startSize=8;endSize=8;curved=1;" edge="1" parent="1">
          <mxGeometry width="50" height="50" relative="1" as="geometry">
            <mxPoint x="122" y="273" as="sourcePoint" />
            <mxPoint x="478" y="273" as="targetPoint" />
          </mxGeometry>
        </mxCell>
        <mxCell id="l4Q2vnecsxd_npJiP5hj-29" value="&lt;span style=&quot;font-size: 11px;&quot;&gt;Input credit card information&lt;/span&gt;" style="text;html=1;align=center;verticalAlign=middle;resizable=0;points=[];autosize=1;strokeColor=none;fillColor=none;fontSize=16;" vertex="1" parent="1">
          <mxGeometry x="133" y="247" width="160" height="30" as="geometry" />
        </mxCell>
        <mxCell id="l4Q2vnecsxd_npJiP5hj-31" value="" style="html=1;points=[[0,0,0,0,5],[0,1,0,0,-5],[1,0,0,0,5],[1,1,0,0,-5]];perimeter=orthogonalPerimeter;outlineConnect=0;targetShapes=umlLifeline;portConstraint=eastwest;newEdgeStyle={&quot;curved&quot;:0,&quot;rounded&quot;:0};" vertex="1" parent="1">
          <mxGeometry x="483" y="300" width="10" height="40" as="geometry" />
        </mxCell>
        <mxCell id="l4Q2vnecsxd_npJiP5hj-32" value="Tokenize user data" style="html=1;align=left;spacingLeft=2;endArrow=block;rounded=0;edgeStyle=orthogonalEdgeStyle;curved=0;rounded=0;fontSize=12;startSize=8;endSize=8;" edge="1" target="l4Q2vnecsxd_npJiP5hj-31" parent="1">
          <mxGeometry x="0.0079" relative="1" as="geometry">
            <mxPoint x="487" y="280" as="sourcePoint" />
            <Array as="points">
              <mxPoint x="511" y="280" />
              <mxPoint x="511" y="315" />
            </Array>
            <mxPoint as="offset" />
          </mxGeometry>
        </mxCell>
        <mxCell id="l4Q2vnecsxd_npJiP5hj-33" value="" style="html=1;align=left;spacingLeft=2;endArrow=openThin;rounded=0;edgeStyle=orthogonalEdgeStyle;curved=0;rounded=0;fontSize=12;startSize=8;endSize=8;dashed=1;endFill=0;" edge="1" parent="1">
          <mxGeometry x="-0.0115" y="54" relative="1" as="geometry">
            <mxPoint x="493" y="330" as="sourcePoint" />
            <Array as="points">
              <mxPoint x="511" y="330" />
              <mxPoint x="511" y="365" />
            </Array>
            <mxPoint x="487" y="365" as="targetPoint" />
            <mxPoint as="offset" />
          </mxGeometry>
        </mxCell>
        <mxCell id="l4Q2vnecsxd_npJiP5hj-41" value="" style="endArrow=open;html=1;rounded=0;fontSize=12;startSize=8;endSize=8;curved=1;endFill=0;" edge="1" parent="1" target="l4Q2vnecsxd_npJiP5hj-40">
          <mxGeometry width="50" height="50" relative="1" as="geometry">
            <mxPoint x="487" y="400" as="sourcePoint" />
            <mxPoint x="624" y="400" as="targetPoint" />
          </mxGeometry>
        </mxCell>
        <mxCell id="l4Q2vnecsxd_npJiP5hj-42" value="&lt;span style=&quot;font-size: 11px;&quot;&gt;Send data with TLS/SSL encryption&lt;/span&gt;" style="text;html=1;align=center;verticalAlign=middle;resizable=0;points=[];autosize=1;strokeColor=none;fillColor=none;fontSize=16;" vertex="1" parent="1">
          <mxGeometry x="483" y="370" width="200" height="30" as="geometry" />
        </mxCell>
        <mxCell id="l4Q2vnecsxd_npJiP5hj-49" value=":BankDatabase" style="shape=umlLifeline;perimeter=lifelinePerimeter;whiteSpace=wrap;html=1;container=0;dropTarget=0;collapsible=0;recursiveResize=0;outlineConnect=0;portConstraint=eastwest;newEdgeStyle={&quot;edgeStyle&quot;:&quot;elbowEdgeStyle&quot;,&quot;elbow&quot;:&quot;vertical&quot;,&quot;curved&quot;:0,&quot;rounded&quot;:0};" vertex="1" parent="1">
          <mxGeometry x="818" y="106.5" width="110" height="893.5" as="geometry" />
        </mxCell>
        <mxCell id="l4Q2vnecsxd_npJiP5hj-50" value="" style="html=1;points=[];perimeter=orthogonalPerimeter;outlineConnect=0;targetShapes=umlLifeline;portConstraint=eastwest;newEdgeStyle={&quot;edgeStyle&quot;:&quot;elbowEdgeStyle&quot;,&quot;elbow&quot;:&quot;vertical&quot;,&quot;curved&quot;:0,&quot;rounded&quot;:0};" vertex="1" parent="l4Q2vnecsxd_npJiP5hj-49">
          <mxGeometry x="50" y="390" width="10" height="80" as="geometry" />
        </mxCell>
        <mxCell id="l4Q2vnecsxd_npJiP5hj-109" value="" style="html=1;points=[];perimeter=orthogonalPerimeter;outlineConnect=0;targetShapes=umlLifeline;portConstraint=eastwest;newEdgeStyle={&quot;edgeStyle&quot;:&quot;elbowEdgeStyle&quot;,&quot;elbow&quot;:&quot;vertical&quot;,&quot;curved&quot;:0,&quot;rounded&quot;:0};" vertex="1" parent="l4Q2vnecsxd_npJiP5hj-49">
          <mxGeometry x="50" y="740" width="10" height="73.5" as="geometry" />
        </mxCell>
        <mxCell id="l4Q2vnecsxd_npJiP5hj-51" value="" style="endArrow=classic;html=1;rounded=0;fontSize=12;startSize=8;endSize=8;curved=1;entryX=0.108;entryY=0.363;entryDx=0;entryDy=0;entryPerimeter=0;" edge="1" parent="1" source="l4Q2vnecsxd_npJiP5hj-40" target="l4Q2vnecsxd_npJiP5hj-50">
          <mxGeometry width="50" height="50" relative="1" as="geometry">
            <mxPoint x="695" y="522.97" as="sourcePoint" />
            <mxPoint x="881" y="522.97" as="targetPoint" />
          </mxGeometry>
        </mxCell>
        <mxCell id="l4Q2vnecsxd_npJiP5hj-52" value="&lt;span style=&quot;font-size: 11px;&quot;&gt;Verify user data&lt;/span&gt;" style="text;html=1;align=center;verticalAlign=middle;resizable=0;points=[];autosize=1;strokeColor=none;fillColor=none;fontSize=16;" vertex="1" parent="1">
          <mxGeometry x="733" y="497" width="100" height="30" as="geometry" />
        </mxCell>
        <mxCell id="l4Q2vnecsxd_npJiP5hj-55" value="" style="endArrow=openThin;html=1;rounded=0;fontSize=12;startSize=8;endSize=8;curved=1;dashed=1;endFill=0;" edge="1" parent="1" source="l4Q2vnecsxd_npJiP5hj-50">
          <mxGeometry width="50" height="50" relative="1" as="geometry">
            <mxPoint x="881" y="556.5" as="sourcePoint" />
            <mxPoint x="695" y="556.5" as="targetPoint" />
          </mxGeometry>
        </mxCell>
        <mxCell id="l4Q2vnecsxd_npJiP5hj-56" value="&lt;span style=&quot;font-size: 11px;&quot;&gt;Data matched&lt;/span&gt;" style="text;html=1;align=center;verticalAlign=middle;resizable=0;points=[];autosize=1;strokeColor=none;fillColor=none;fontSize=16;" vertex="1" parent="1">
          <mxGeometry x="733" y="532" width="90" height="30" as="geometry" />
        </mxCell>
        <mxCell id="l4Q2vnecsxd_npJiP5hj-58" value="" style="endArrow=open;html=1;rounded=0;fontSize=12;startSize=8;endSize=8;curved=1;endFill=0;" edge="1" parent="1">
          <mxGeometry width="50" height="50" relative="1" as="geometry">
            <mxPoint x="695" y="605" as="sourcePoint" />
            <mxPoint x="1025" y="605" as="targetPoint" />
          </mxGeometry>
        </mxCell>
        <mxCell id="l4Q2vnecsxd_npJiP5hj-60" value="&lt;span style=&quot;font-size: 11px;&quot;&gt;Request 3DS authentication&lt;/span&gt;" style="text;html=1;align=center;verticalAlign=middle;resizable=0;points=[];autosize=1;strokeColor=none;fillColor=none;fontSize=16;" vertex="1" parent="1">
          <mxGeometry x="693" y="580" width="160" height="30" as="geometry" />
        </mxCell>
        <mxCell id="l4Q2vnecsxd_npJiP5hj-94" value="" style="endArrow=openThin;html=1;rounded=0;fontSize=12;startSize=8;endSize=8;curved=1;dashed=1;endFill=0;" edge="1" parent="1">
          <mxGeometry width="50" height="50" relative="1" as="geometry">
            <mxPoint x="1025" y="730.25" as="sourcePoint" />
            <mxPoint x="121" y="730.25" as="targetPoint" />
          </mxGeometry>
        </mxCell>
        <mxCell id="l4Q2vnecsxd_npJiP5hj-95" value="&lt;span style=&quot;font-size: 11px;&quot;&gt;Send OTP to phone number&lt;/span&gt;" style="text;html=1;align=center;verticalAlign=middle;resizable=0;points=[];autosize=1;strokeColor=none;fillColor=none;fontSize=16;" vertex="1" parent="1">
          <mxGeometry x="495" y="701" width="160" height="30" as="geometry" />
        </mxCell>
        <mxCell id="l4Q2vnecsxd_npJiP5hj-98" value="" style="endArrow=openThin;html=1;rounded=0;fontSize=12;startSize=8;endSize=8;curved=1;dashed=1;endFill=0;" edge="1" parent="1">
          <mxGeometry width="50" height="50" relative="1" as="geometry">
            <mxPoint x="477" y="421.5" as="sourcePoint" />
            <mxPoint x="121" y="421.5" as="targetPoint" />
          </mxGeometry>
        </mxCell>
        <mxCell id="l4Q2vnecsxd_npJiP5hj-99" value="&lt;span style=&quot;font-size: 11px;&quot;&gt;Redirect user to Bank OTP authentication&lt;/span&gt;" style="text;html=1;align=center;verticalAlign=middle;resizable=0;points=[];autosize=1;strokeColor=none;fillColor=none;fontSize=16;" vertex="1" parent="1">
          <mxGeometry x="241" y="390" width="230" height="30" as="geometry" />
        </mxCell>
        <mxCell id="l4Q2vnecsxd_npJiP5hj-102" value="" style="endArrow=classic;html=1;rounded=0;fontSize=12;startSize=8;endSize=8;curved=1;" edge="1" parent="1">
          <mxGeometry width="50" height="50" relative="1" as="geometry">
            <mxPoint x="121" y="767" as="sourcePoint" />
            <mxPoint x="685" y="767" as="targetPoint" />
          </mxGeometry>
        </mxCell>
        <mxCell id="l4Q2vnecsxd_npJiP5hj-103" value="&lt;span style=&quot;font-size: 11px;&quot;&gt;Input OTP&lt;/span&gt;" style="text;html=1;align=center;verticalAlign=middle;resizable=0;points=[];autosize=1;strokeColor=none;fillColor=none;fontSize=16;" vertex="1" parent="1">
          <mxGeometry x="379" y="737" width="70" height="30" as="geometry" />
        </mxCell>
        <mxCell id="l4Q2vnecsxd_npJiP5hj-105" value="" style="endArrow=classic;html=1;rounded=0;fontSize=12;startSize=8;endSize=8;curved=1;" edge="1" parent="1">
          <mxGeometry width="50" height="50" relative="1" as="geometry">
            <mxPoint x="695" y="783.5" as="sourcePoint" />
            <mxPoint x="1025" y="783.5" as="targetPoint" />
          </mxGeometry>
        </mxCell>
        <mxCell id="l4Q2vnecsxd_npJiP5hj-106" value="&lt;span style=&quot;font-size: 11px;&quot;&gt;Verify OTP&lt;/span&gt;" style="text;html=1;align=center;verticalAlign=middle;resizable=0;points=[];autosize=1;strokeColor=none;fillColor=none;fontSize=16;" vertex="1" parent="1">
          <mxGeometry x="714" y="756" width="80" height="30" as="geometry" />
        </mxCell>
        <mxCell id="l4Q2vnecsxd_npJiP5hj-107" value="" style="endArrow=openThin;html=1;rounded=0;fontSize=12;startSize=8;endSize=8;curved=1;dashed=1;endFill=0;" edge="1" parent="1">
          <mxGeometry width="50" height="50" relative="1" as="geometry">
            <mxPoint x="1025" y="818" as="sourcePoint" />
            <mxPoint x="695" y="818" as="targetPoint" />
            <Array as="points">
              <mxPoint x="800" y="818" />
            </Array>
          </mxGeometry>
        </mxCell>
        <mxCell id="l4Q2vnecsxd_npJiP5hj-108" value="&lt;span style=&quot;font-size: 11px;&quot;&gt;OTP Verified&lt;/span&gt;" style="text;html=1;align=center;verticalAlign=middle;resizable=0;points=[];autosize=1;strokeColor=none;fillColor=none;fontSize=16;" vertex="1" parent="1">
          <mxGeometry x="900" y="786" width="90" height="30" as="geometry" />
        </mxCell>
        <mxCell id="l4Q2vnecsxd_npJiP5hj-110" value="" style="endArrow=classic;html=1;rounded=0;fontSize=12;startSize=8;endSize=8;curved=1;" edge="1" parent="1">
          <mxGeometry width="50" height="50" relative="1" as="geometry">
            <mxPoint x="695" y="856.5" as="sourcePoint" />
            <mxPoint x="868" y="856.5" as="targetPoint" />
          </mxGeometry>
        </mxCell>
        <mxCell id="l4Q2vnecsxd_npJiP5hj-111" value="&lt;span style=&quot;font-size: 11px;&quot;&gt;Add transaction&lt;/span&gt;" style="text;html=1;align=center;verticalAlign=middle;resizable=0;points=[];autosize=1;strokeColor=none;fillColor=none;fontSize=16;" vertex="1" parent="1">
          <mxGeometry x="708" y="830" width="100" height="30" as="geometry" />
        </mxCell>
        <mxCell id="l4Q2vnecsxd_npJiP5hj-112" value="" style="endArrow=openThin;html=1;rounded=0;fontSize=12;startSize=8;endSize=8;curved=1;dashed=1;endFill=0;" edge="1" parent="1" source="l4Q2vnecsxd_npJiP5hj-109" target="l4Q2vnecsxd_npJiP5hj-104">
          <mxGeometry width="50" height="50" relative="1" as="geometry">
            <mxPoint x="850" y="890" as="sourcePoint" />
            <mxPoint x="710" y="890" as="targetPoint" />
            <Array as="points">
              <mxPoint x="819" y="890" />
            </Array>
          </mxGeometry>
        </mxCell>
        <mxCell id="l4Q2vnecsxd_npJiP5hj-113" value="&lt;span style=&quot;font-size: 11px;&quot;&gt;Transaction added&lt;/span&gt;" style="text;html=1;align=center;verticalAlign=middle;resizable=0;points=[];autosize=1;strokeColor=none;fillColor=none;fontSize=16;" vertex="1" parent="1">
          <mxGeometry x="744" y="862" width="110" height="30" as="geometry" />
        </mxCell>
        <mxCell id="l4Q2vnecsxd_npJiP5hj-115" value="" style="html=1;points=[];perimeter=orthogonalPerimeter;outlineConnect=0;targetShapes=umlLifeline;portConstraint=eastwest;newEdgeStyle={&quot;edgeStyle&quot;:&quot;elbowEdgeStyle&quot;,&quot;elbow&quot;:&quot;vertical&quot;,&quot;curved&quot;:0,&quot;rounded&quot;:0};" vertex="1" parent="1">
          <mxGeometry x="477" y="170" width="10" height="61" as="geometry" />
        </mxCell>
        <mxCell id="l4Q2vnecsxd_npJiP5hj-116" value="" style="endArrow=classic;html=1;rounded=0;fontSize=12;startSize=8;endSize=8;curved=1;" edge="1" parent="1">
          <mxGeometry width="50" height="50" relative="1" as="geometry">
            <mxPoint x="326" y="191" as="sourcePoint" />
            <mxPoint x="477" y="191" as="targetPoint" />
          </mxGeometry>
        </mxCell>
        <mxCell id="l4Q2vnecsxd_npJiP5hj-117" value="&lt;span style=&quot;font-size: 11px;&quot;&gt;Request for session&lt;/span&gt;" style="text;html=1;align=center;verticalAlign=middle;resizable=0;points=[];autosize=1;strokeColor=none;fillColor=none;fontSize=16;" vertex="1" parent="1">
          <mxGeometry x="319" y="165" width="120" height="30" as="geometry" />
        </mxCell>
        <mxCell id="l4Q2vnecsxd_npJiP5hj-119" value="" style="endArrow=openThin;html=1;rounded=0;fontSize=12;startSize=8;endSize=8;curved=1;dashed=1;endFill=0;" edge="1" parent="1">
          <mxGeometry width="50" height="50" relative="1" as="geometry">
            <mxPoint x="477" y="222.5" as="sourcePoint" />
            <mxPoint x="326.0000000000001" y="222.5" as="targetPoint" />
          </mxGeometry>
        </mxCell>
        <mxCell id="l4Q2vnecsxd_npJiP5hj-120" value="&lt;span style=&quot;font-size: 11px;&quot;&gt;Session generated&lt;/span&gt;" style="text;html=1;align=center;verticalAlign=middle;resizable=0;points=[];autosize=1;strokeColor=none;fillColor=none;fontSize=16;" vertex="1" parent="1">
          <mxGeometry x="362" y="196" width="120" height="30" as="geometry" />
        </mxCell>
        <mxCell id="l4Q2vnecsxd_npJiP5hj-122" value="" style="endArrow=openThin;html=1;rounded=0;fontSize=12;startSize=8;endSize=8;curved=1;dashed=1;endFill=0;" edge="1" parent="1" source="l4Q2vnecsxd_npJiP5hj-104" target="l4Q2vnecsxd_npJiP5hj-15">
          <mxGeometry width="50" height="50" relative="1" as="geometry">
            <mxPoint x="680" y="910" as="sourcePoint" />
            <mxPoint x="130" y="910" as="targetPoint" />
            <Array as="points">
              <mxPoint x="499" y="912" />
            </Array>
          </mxGeometry>
        </mxCell>
        <mxCell id="l4Q2vnecsxd_npJiP5hj-123" value="&lt;span style=&quot;font-size: 11px;&quot;&gt;Payment success&lt;/span&gt;" style="text;html=1;align=center;verticalAlign=middle;resizable=0;points=[];autosize=1;strokeColor=none;fillColor=none;fontSize=16;" vertex="1" parent="1">
          <mxGeometry x="359" y="880" width="110" height="30" as="geometry" />
        </mxCell>
      </root>
    </mxGraphModel>
  </diagram>
</mxfile>
